<svg xmlns="http://www.w3.org/2000/svg" viewBox="0 0 120 120" fill="none" stroke="currentColor" stroke-width="3.5" stroke-linecap="round" stroke-linejoin="round">
  <!-- Aya - Fern / Endurance and Resourcefulness -->
  <!-- Diamond/fern pattern with repeating leaf shapes -->
  <!-- Central vertical stem -->
  <line x1="60" y1="10" x2="60" y2="110" />
  <!-- Leaf pairs - top to bottom -->
  <path d="M60 20 L40 35 L60 35" />
  <path d="M60 20 L80 35 L60 35" />
  <path d="M60 35 L35 50 L60 50" />
  <path d="M60 35 L85 50 L60 50" />
  <path d="M60 50 L30 65 L60 65" />
  <path d="M60 50 L90 65 L60 65" />
  <path d="M60 65 L35 80 L60 80" />
  <path d="M60 65 L85 80 L60 80" />
  <path d="M60 80 L40 95 L60 95" />
  <path d="M60 80 L80 95 L60 95" />
</svg>
