<svg xmlns="http://www.w3.org/2000/svg" viewBox="0 0 120 120" fill="none" stroke="currentColor" stroke-width="3.5" stroke-linecap="round" stroke-linejoin="round">
  <!-- Bese Saka - Sack of cola nuts / Affluence, Abundance, Unity -->
  <!-- Clustered circles representing cola nuts in a sack -->
  <!-- Sack outline -->
  <path d="M35 20 Q30 20 28 30 L22 90 Q20 105 35 108 L85 108 Q100 105 98 90 L92 30 Q90 20 85 20 Z" />
  <!-- Tied top -->
  <path d="M45 20 Q60 10 75 20" />
  <path d="M50 18 Q60 12 70 18" />
  <!-- Cola nut circles - top row -->
  <circle cx="45" cy="40" r="8" />
  <circle cx="65" cy="40" r="8" />
  <circle cx="80" cy="42" r="7" />
  <!-- Middle row -->
  <circle cx="38" cy="58" r="8" />
  <circle cx="58" cy="58" r="8" />
  <circle cx="78" cy="58" r="8" />
  <!-- Bottom row -->
  <circle cx="42" cy="76" r="8" />
  <circle cx="62" cy="76" r="8" />
  <circle cx="80" cy="76" r="7" />
  <!-- Last row -->
  <circle cx="50" cy="93" r="7" />
  <circle cx="70" cy="93" r="7" />
</svg>
