<svg xmlns="http://www.w3.org/2000/svg" viewBox="0 0 120 120" fill="none" stroke="currentColor" stroke-width="3.5" stroke-linecap="round" stroke-linejoin="round">
  <!-- Dwennimmen - Ram's horns / Humility and Strength -->
  <!-- Four spiral ram's horns arranged in a cross/pinwheel pattern -->
  <!-- Top-left spiral -->
  <path d="M60 60 C60 40 55 20 35 15 C20 12 15 25 20 35 C25 45 40 45 45 35" />
  <!-- Top-right spiral -->
  <path d="M60 60 C80 60 100 55 105 35 C108 20 95 15 85 20 C75 25 75 40 85 45" />
  <!-- Bottom-right spiral -->
  <path d="M60 60 C60 80 65 100 85 105 C100 108 105 95 100 85 C95 75 80 75 75 85" />
  <!-- Bottom-left spiral -->
  <path d="M60 60 C40 60 20 65 15 85 C12 100 25 105 35 100 C45 95 45 80 35 75" />
</svg>
