<svg xmlns="http://www.w3.org/2000/svg" viewBox="0 0 120 120" fill="none" stroke="currentColor" stroke-width="3.5" stroke-linecap="round" stroke-linejoin="round">
  <!-- Gye Nyame - Except God / Supremacy of God -->
  <!-- Concentric curves forming the classic omnipotence symbol -->
  <path d="M30 85 C30 85 20 70 25 55 C30 40 45 35 50 45 C55 55 40 60 35 50" />
  <path d="M35 50 C30 40 40 25 55 25 C70 25 75 40 70 50" />
  <path d="M70 50 C65 60 55 55 50 45 C45 35 55 25 65 30" />
  <path d="M90 85 C90 85 100 70 95 55 C90 40 75 35 70 45 C65 55 80 60 85 50" />
  <path d="M85 50 C90 40 80 25 65 25 C55 25 50 35 55 45" />
  <path d="M25 90 Q60 75 95 90" />
  <path d="M20 95 Q60 80 100 95" />
  <path d="M55 25 C55 15 65 15 65 25" />
  <path d="M50 20 C50 10 70 10 70 20" />
</svg>
