<svg xmlns="http://www.w3.org/2000/svg" viewBox="0 0 120 120" fill="none" stroke="currentColor" stroke-width="3.5" stroke-linecap="round" stroke-linejoin="round">
  <!-- Woforo Dua Pa A - When you climb a good tree / Support and Cooperation -->
  <!-- Tree trunk -->
  <line x1="60" y1="110" x2="60" y2="30" />
  <!-- Tree canopy branches -->
  <path d="M60 30 Q40 20 25 25" />
  <path d="M60 30 Q80 20 95 25" />
  <path d="M60 40 Q35 30 20 38" />
  <path d="M60 40 Q85 30 100 38" />
  <path d="M60 50 Q38 42 25 50" />
  <path d="M60 50 Q82 42 95 50" />
  <!-- Supporting vine wrapping around trunk -->
  <path d="M45 110 Q45 95 65 85 Q75 80 55 70 Q45 65 65 55 Q75 50 60 40" />
  <!-- Roots -->
  <path d="M60 110 Q50 115 40 112" />
  <path d="M60 110 Q70 115 80 112" />
</svg>
